<svg xmlns="http://www.w3.org/2000/svg" viewBox="0 0 512 512">
  <defs>
    <linearGradient id="cupset-g" x1="0" y1="0" x2="1" y2="1">
      <stop offset="0" stop-color="#22d3ee"/>
      <stop offset="0.55" stop-color="#818cf8"/>
      <stop offset="1" stop-color="#f43f5e"/>
    </linearGradient>
  </defs>
  <rect x="0" y="0" width="512" height="512" rx="112" fill="url(#cupset-g)"/>
  <rect x="82" y="122" width="348" height="286" rx="30" fill="#ffffff"/>
  <path d="M82 208 L82 152 Q82 122 112 122 L400 122 Q430 122 430 152 L430 208 Z" fill="#0b0e14"/>
  <g fill="#ffffff">
    <polygon points="110,130 136,130 124,200 98,200"/>
    <polygon points="160,130 186,130 174,200 148,200"/>
    <polygon points="210,130 236,130 224,200 198,200"/>
    <polygon points="260,130 286,130 274,200 248,200"/>
    <polygon points="310,130 336,130 324,200 298,200"/>
    <polygon points="360,130 386,130 374,200 348,200"/>
  </g>
  <path d="M232 272 L310 308 L232 344 Z" fill="#0b0e14"/>
</svg>
